<svg xmlns="http://www.w3.org/2000/svg" xmlns:xlink="http://www.w3.org/1999/xlink" width="500" zoomAndPan="magnify" viewBox="0 0 375 374.999991" height="500" preserveAspectRatio="xMidYMid meet" version="1.0"><defs><clipPath id="id1"><path d="M 0.00390625 0.613281 L 374.996094 0.613281 L 374.996094 374.113281 L 0.00390625 374.113281 Z M 0.00390625 0.613281 " clip-rule="nonzero"/></clipPath><clipPath id="id2"><path d="M 114.410156 113.761719 L 267.410156 113.761719 L 267.410156 267.511719 L 114.410156 267.511719 Z M 114.410156 113.761719 " clip-rule="nonzero"/></clipPath><clipPath id="id3"><path d="M 276.429688 62.054688 L 311.679688 62.054688 L 311.679688 98.054688 L 276.429688 98.054688 Z M 276.429688 62.054688 " clip-rule="nonzero"/></clipPath></defs><g clip-path="url(#id1)"><path stroke-linecap="butt" transform="matrix(0.75, 0, 0, 0.749459, 0.00250981, 0.612745)" fill="none" stroke-linejoin="miter" d="M 0.00186192 0.000715431 L 499.991478 0.000715431 L 499.991478 498.360093 L 0.00186192 498.360093 L 0.00186192 0.000715431 " stroke="#000000" stroke-width="98" stroke-opacity="1" stroke-miterlimit="4"/></g><g clip-path="url(#id2)"><path fill="#000000" d="M 114.410156 113.765625 L 267.410156 113.765625 L 267.410156 267.511719 L 114.410156 267.511719 L 114.410156 113.765625 " fill-opacity="1" fill-rule="nonzero"/></g><g clip-path="url(#id3)"><path fill="#000000" d="M 276.433594 62.054688 L 311.679688 62.054688 L 311.679688 98.054688 L 276.433594 98.054688 L 276.433594 62.054688 " fill-opacity="1" fill-rule="nonzero"/></g></svg>